<?xml version="1.0" encoding="UTF-8" standalone="no"?>
<svg
   width="39.053001"
   height="34.895779"
   viewBox="0 0 39.053001 34.895779"
   fill="none"
   version="1.1"
   id="svg112"
   sodipodi:docname="logo.svg"
   inkscape:version="1.1.1 (3bf5ae0d25, 2021-09-20)"
   xmlns:inkscape="http://www.inkscape.org/namespaces/inkscape"
   xmlns:sodipodi="http://sodipodi.sourceforge.net/DTD/sodipodi-0.dtd"
   xmlns="http://www.w3.org/2000/svg"
   xmlns:svg="http://www.w3.org/2000/svg">
  <defs
     id="defs116" />
  <sodipodi:namedview
     id="namedview114"
     pagecolor="#ffffff"
     bordercolor="#666666"
     borderopacity="1.0"
     inkscape:pageshadow="2"
     inkscape:pageopacity="0.0"
     inkscape:pagecheckerboard="0"
     showgrid="false"
     inkscape:zoom="5.68"
     inkscape:cx="-0.35211268"
     inkscape:cy="20.862676"
     inkscape:window-width="1920"
     inkscape:window-height="1147"
     inkscape:window-x="0"
     inkscape:window-y="27"
     inkscape:window-maximized="1"
     inkscape:current-layer="svg112"
     fit-margin-top="0"
     fit-margin-left="0"
     fit-margin-right="0"
     fit-margin-bottom="0" />
  <path
     d="M -75.6084,-3.124999 V 2.47396 h -18.40896 v 11.06772 h 15.12166 v 5.3385 h -15.12166 v 16.2761 H -100.329 V -3.124999 Z"
     fill="#911c1c"
     id="path98" />
  <path
     d="m -65.7464,-2.99495 c 0.6575,0.65104 1.052,1.5625 1.052,2.60416 0,1.04167 -0.3945,1.82292 -1.052,2.47396 -0.6574,0.65104 -1.5779,1.04167 -2.6298,1.04167 -1.052,0 -1.8409,-0.39063 -2.6299,-1.04167 -0.6574,-0.65104 -1.0519,-1.5625 -1.0519,-2.47396 0,-1.04166 0.3945,-1.82291 1.0519,-2.60416 0.6575,-0.651045 1.5779,-1.04167 2.6299,-1.04167 1.0519,0 1.8409,0.390625 2.6298,1.04167 z m 0.263,10.15623 v 27.9948 h -5.9171 V 7.16128 Z"
     fill="#911c1c"
     id="path100" />
  <path
     d="m -57.068,32.94258 c -2.3669,-1.6927 -3.5503,-4.0365 -3.5503,-7.0313 h 5.7857 c 0.1315,1.4323 0.7889,2.7344 2.1038,3.6458 1.315,0.9115 2.8929,1.4323 4.8653,1.4323 1.8409,0 3.2873,-0.3906 4.4707,-1.0416 1.1834,-0.6511 1.7094,-1.5625 1.7094,-2.7344 0,-0.9115 -0.263,-1.5625 -0.789,-2.0833 -0.5259,-0.5209 -1.1834,-0.7813 -2.1038,-1.0417 -0.9205,-0.2604 -2.2354,-0.3906 -3.9448,-0.651 h -0.1315 l -0.7889,-0.1302 c -2.2354,-0.2605 -4.2078,-0.6511 -5.6542,-1.1719 -1.4464,-0.5209 -2.7614,-1.3021 -3.5503,-2.3438 -0.9205,-1.0416 -1.3149,-2.3437 -1.3149,-4.1666 0,-1.6927 0.5259,-3.2552 1.4464,-4.5573 0.9204,-1.3021 2.3668,-2.3438 4.0762,-3.125 1.7094,-0.7813 3.6818,-1.0417 5.9172,-1.0417 3.5503,0 6.4431,0.7813 8.547,2.3437 2.2354,1.5626 3.4188,3.7761 3.5503,6.6407 h -5.7857 c -0.1315,-1.3021 -0.7889,-2.3438 -1.9724,-3.125 -1.1834,-0.7813 -2.6298,-1.3021 -4.3392,-1.3021 -1.7094,0 -3.1558,0.3906 -4.0763,1.0417 -1.0519,0.651 -1.5779,1.5625 -1.5779,2.7343 0,0.7813 0.263,1.4323 0.6575,1.823 0.526,0.3906 1.1834,0.651 1.9724,0.9114 0.7889,0.1302 1.9724,0.3906 3.5503,0.5208 0.1315,0 0.1315,0 0.263,0 0.1314,0 0.1314,0 0.2629,0 2.4984,0.2605 4.4708,0.6511 6.1802,1.1719 1.5779,0.5209 3.0243,1.3021 3.9448,2.474 1.0519,1.1719 1.5779,2.7343 1.5779,4.6875 0,1.6927 -0.526,3.2552 -1.5779,4.5573 -1.052,1.3021 -2.4984,2.3437 -4.3393,3.125 -1.8409,0.651 -3.8133,1.0416 -6.1801,1.0416 -3.8133,-0.1302 -6.8376,-0.9114 -9.2045,-2.6041 z"
     fill="#911c1c"
     id="path102" />
  <path
     d="M -24.9838,-3.124999 V 13.93228 l -0.9204,-1.3021 c 0.9204,-1.6927 2.2354,-3.125 3.8133,-4.1666 1.5779,-1.0417 3.5503,-1.5625 6.0486,-1.5625 3.4188,0 6.1802,1.0416 8.284,2.9948 2.1039,2.0833 3.1559,5.3385 3.1559,9.8958 v 15.3646 h -5.9172 v -15.1042 c 0,-2.6042 -0.526,-4.6875 -1.7094,-6.1198 -1.1834,-1.4323 -2.8928,-2.0833 -4.9967,-2.0833 -1.5779,0 -2.8928,0.3906 -4.0763,1.0416 -1.1834,0.7813 -1.9724,1.823 -2.6298,3.125 -0.6575,1.3021 -0.9205,2.9948 -0.9205,4.8178 v 14.1927 h -5.9171 V -3.124999 Z"
     fill="#911c1c"
     id="path104" />
  <path
     d="m 49.178,7.16098 7.889,21.6146 7.627,-21.6146 h 6.312 l -12.755,32.2917 c -0.658,1.6927 -1.315,2.9948 -1.841,3.9062 -0.526,0.9115 -1.184,1.5625 -2.104,1.9531 -0.789,0.3907 -1.841,0.6511 -3.287,0.6511 h -6.443 v -5.2084 h 4.207 c 0.789,0 1.447,-0.1302 1.841,-0.2604 0.395,-0.1302 0.789,-0.3906 1.052,-0.7812 0.263,-0.3907 0.526,-1.0417 0.921,-1.8229 l 1.183,-2.7344 -11.045,-28.125 h 6.443 z"
     fill="#911c1c"
     id="path106" />
  <path
     d="m 78.895,33.59338 c -2.235,-1.1718 -3.945,-2.8645 -5.128,-4.9479 -1.183,-2.2135 -1.841,-4.6875 -1.841,-7.5521 0,-2.8645 0.526,-5.4687 1.71,-7.552 1.183,-2.0834 2.761,-3.7761 4.865,-4.948 2.104,-1.1718 4.47,-1.8229 7.232,-1.8229 2.761,0 5.128,0.5209 7.232,1.5625 2.104,1.0417 3.682,2.6042 4.865,4.6875 1.184,2.0834 1.841,4.4271 1.841,7.0313 0,0.3906 0,0.651 0,1.0416 0,0.3907 0,0.7813 -0.131,1.1719 H 78.238 c 0,0.1302 0,0.1302 0,0.1302 v 0.1302 c 0.131,1.5625 0.394,2.9948 1.052,4.1667 0.657,1.1719 1.578,2.0833 2.761,2.7344 1.183,0.651 2.498,1.0417 4.076,1.0417 1.841,0 3.419,-0.3907 4.603,-1.3021 1.314,-0.9115 2.103,-2.0834 2.498,-3.6459 h 6.049 c -0.395,1.823 -1.052,3.5157 -2.236,4.948 -1.183,1.4322 -2.63,2.6041 -4.339,3.5156 -1.841,0.7812 -3.813,1.3021 -6.049,1.3021 -2.893,0.1302 -5.522,-0.5209 -7.758,-1.6928 z m 3.551,-21.2239 c -1.052,0.5208 -1.973,1.3021 -2.63,2.3437 -0.658,1.0417 -1.184,2.0834 -1.315,3.3855 h 15.121 c -0.263,-2.0834 -1.052,-3.7761 -2.366,-4.8178 -1.315,-1.1718 -3.156,-1.6927 -5.26,-1.6927 -1.184,-0.1302 -2.367,0.2605 -3.55,0.7813 z"
     fill="#911c1c"
     id="path108" />
  <path
     d="m 35.108,3.90625 h -6.18 L 25.378,0 H 13.675 l -3.55,3.90625 H 3.944 C 1.841,3.90625 0,5.59896 0,7.81248 v 23.1771 c 0,2.0833 1.709,3.9062 3.944,3.9062 h 31.164 c 2.104,0 3.945,-1.6927 3.945,-3.9062 V 7.68228 c 0,-2.08332 -1.71,-3.77603 -3.945,-3.77603 z m 0,26.95313 H 4.076 V 7.68228 h 7.889 L 15.516,3.77604 H 23.8 l 3.419,3.90624 h 7.889 z M 19.592,9.63538 c -5.391,0 -9.73,4.2969 -9.73,9.6355 0,5.3385 4.339,9.6354 9.73,9.6354 5.391,0 9.73,-4.2969 9.73,-9.6354 0,-5.3386 -4.339,-9.6355 -9.73,-9.6355 z m 0,15.4948 c -3.156,0 -5.786,-2.6041 -5.786,-5.7291 0,-3.125 2.63,-5.7292 5.786,-5.7292 3.156,0 5.786,2.6042 5.786,5.7292 0,3.125 -2.63,5.7291 -5.786,5.7291 z"
     fill="#911c1c"
     id="path110" />
</svg>
